<svg width="102" height="104" viewBox="0 0 102 104" fill="none" xmlns="http://www.w3.org/2000/svg">
<path d="M4.35355 103.354C4.15829 103.549 3.84171 103.549 3.64645 103.354L0.464466 100.172C0.269204 99.9763 0.269204 99.6597 0.464466 99.4645C0.659728 99.2692 0.976311 99.2692 1.17157 99.4645L4 102.293L6.82843 99.4645C7.02369 99.2692 7.34027 99.2692 7.53553 99.4645C7.7308 99.6597 7.7308 99.9763 7.53553 100.172L4.35355 103.354ZM4.5 9L4.5 103H3.5L3.5 9H4.5ZM12 0.5L102 0.5V1.5L12 1.5V0.5ZM3.5 9C3.5 4.30558 7.30558 0.5 12 0.5V1.5C7.85786 1.5 4.5 4.85786 4.5 9H3.5Z" fill="#00D589"/>
</svg>
 